<?xml version="1.0" encoding="UTF-8"?>
<svg xmlns="http://www.w3.org/2000/svg" version="1.1" viewBox="0 0 500 200">
  <defs>
    <style>
      .cls-1 {
        stroke: #444;
        stroke-width: 2.5px;
      }

      .cls-1, .cls-2 {
        fill: none;
        stroke-miterlimit: 10;
      }

      .cls-3 {
        fill: #fff;
      }

      .cls-2 {
        stroke: #ffb000;
        stroke-width: 3px;
      }

      .cls-4 {
        fill: #444;
      }

      .cls-5 {
        fill: #ffb000;
      }

      .cls-6 {
        fill: #565656;
      }
    </style>
  </defs>
  <!-- Generator: Adobe Illustrator 28.6.0, SVG Export Plug-In . SVG Version: 1.2.0 Build 709)  -->
  <g>
    <g id="Layer_1">
      <path class="cls-4" d="M140.78,163.61c0,2.34-2.08,4.23-4.64,4.23h-28.51c-2.56,0-4.64-1.9-4.64-4.23H24.69c0,5.72,4.82,10.35,10.76,10.35h172.88c5.94,0,10.76-4.63,10.76-10.35h-78.3Z"/>
      <path class="cls-6" d="M195.52,61.17h-22.01c-1.95,0-3.45,1.71-3.2,3.64h0c.21,1.6,1.58,2.8,3.2,2.8h22.01c1.27,0,2.3,1.03,2.3,2.3v81.16H45.94v-81.16c0-1.27,1.03-2.3,2.3-2.3h22.01c1.62,0,2.99-1.2,3.2-2.8h0c.25-1.93-1.25-3.64-3.2-3.64h-22.01c-4.83,0-8.75,3.92-8.75,8.75v93.69h164.78v-93.69c0-4.83-3.92-8.75-8.75-8.75Z"/>
      <path class="cls-4" d="M39.49,173.96h18.92v.23c0,1.45-1.17,2.62-2.62,2.62h-13.68c-1.45,0-2.62-1.17-2.62-2.62v-.23h0Z"/>
      <path class="cls-4" d="M187.98,173.96h13.68c1.45,0,2.62,1.17,2.62,2.62v.23h-18.92v-.23c0-1.45,1.17-2.62,2.62-2.62Z" transform="translate(389.63 350.76) rotate(180)"/>
      <g>
        <path class="cls-5" d="M161.21,48.42h-78.66c-1.47,0-2.71,1.09-2.9,2.54l-14.38,109.35c-.23,1.75,1.13,3.3,2.9,3.3h107.43c1.76,0,3.13-1.55,2.9-3.3l-14.38-109.35c-.19-1.45-1.43-2.54-2.9-2.54Z"/>
        <circle class="cls-3" cx="100.45" cy="64.39" r="3.22"/>
        <circle class="cls-3" cx="143.32" cy="64.39" r="3.22"/>
        <path class="cls-1" d="M100.45,64.86v-20.23c0-11.84,9.6-21.44,21.44-21.44h0c11.84,0,21.44,9.6,21.44,21.44v19.76"/>
        <circle class="cls-3" cx="121.88" cy="106.01" r="18.21"/>
        <g>
          <polygon class="cls-4" points="129.65 113.34 114.11 113.34 111.94 103.76 131.83 103.76 129.65 113.34"/>
          <path class="cls-1" d="M121.44,96.52h.88c2.81,0,5.1,2.28,5.1,5.1v5.34h-11.08v-5.34c0-2.81,2.28-5.1,5.1-5.1Z"/>
        </g>
      </g>
      <path class="cls-4" d="M238.58,80.2h17.55v9.89c0,3.81-.77,7.13-2.3,9.98-1.53,2.84-3.67,5.05-6.42,6.62s-5.98,2.35-9.7,2.35-7.01-.74-9.8-2.21c-2.8-1.47-4.97-3.55-6.51-6.23s-2.32-5.81-2.32-9.38v-14.94c0-3.81.77-7.13,2.3-9.96,1.53-2.83,3.67-5.03,6.43-6.6s5.98-2.35,9.7-2.35c3.06,0,5.86.63,8.37,1.88s4.64,3.01,6.36,5.26c1.72,2.25,2.88,4.89,3.48,7.91h-10.31c-.51-1.65-1.53-2.92-3.05-3.81-1.52-.89-3.14-1.34-4.86-1.34-2.58,0-4.64.82-6.2,2.47-1.56,1.65-2.33,3.83-2.33,6.55v14.94c0,2.39.8,4.31,2.4,5.76,1.6,1.45,3.71,2.18,6.34,2.18s4.64-.78,6.2-2.35,2.33-3.75,2.33-6.56v-.84h-7.66v-9.19Z"/>
      <path class="cls-4" d="M259.27,108.52l19.36-50.63h6.06l19.36,50.63h-10.27l-12.12-34.58-12.12,34.58h-10.27ZM268.57,100.4v-9.19h26.64v9.19h-26.64Z"/>
      <path class="cls-4" d="M310.32,108.52v-50.63h9.54v50.63h-9.54ZM315.13,108.52v-9.19h12.15c3.13,0,5.56-.76,7.28-2.28,1.72-1.52,2.58-3.65,2.58-6.39v-14.91c0-2.76-.86-4.9-2.58-6.41-1.72-1.51-4.14-2.26-7.28-2.26h-12.15v-9.19h11.94c6.36,0,11.28,1.58,14.75,4.75,3.47,3.17,5.21,7.63,5.21,13.39v14.35c0,3.6-.74,6.76-2.23,9.49s-3.71,4.85-6.67,6.37c-2.96,1.52-6.66,2.28-11.09,2.28h-11.91Z"/>
      <path class="cls-4" d="M374.19,80.2h17.55v9.89c0,3.81-.77,7.13-2.3,9.98-1.53,2.84-3.67,5.05-6.43,6.62s-5.98,2.35-9.7,2.35-7.01-.74-9.8-2.21c-2.8-1.47-4.97-3.55-6.51-6.23-1.55-2.68-2.32-5.81-2.32-9.38v-14.94c0-3.81.77-7.13,2.3-9.96,1.53-2.83,3.67-5.03,6.42-6.6,2.75-1.57,5.98-2.35,9.7-2.35,3.06,0,5.86.63,8.38,1.88s4.64,3.01,6.36,5.26c1.72,2.25,2.88,4.89,3.48,7.91h-10.31c-.51-1.65-1.53-2.92-3.05-3.81-1.52-.89-3.14-1.34-4.86-1.34-2.58,0-4.64.82-6.2,2.47s-2.33,3.83-2.33,6.55v14.94c0,2.39.8,4.31,2.4,5.76,1.6,1.45,3.71,2.18,6.34,2.18s4.64-.78,6.2-2.35,2.33-3.75,2.33-6.56v-.84h-7.66v-9.19Z"/>
      <path class="cls-4" d="M401.14,108.52v-50.63h9.54v50.63h-9.54ZM404.59,67.08v-9.19h30.47v9.19h-30.47ZM404.59,87.97v-9.19h26.64v9.19h-26.64ZM404.59,108.52v-9.19h30.47v9.19h-30.47Z"/>
      <path class="cls-4" d="M438.19,67.08v-9.19h37.12v9.19h-37.12ZM451.98,108.52v-46.49h9.54v46.49h-9.54Z"/>
      <path class="cls-5" d="M366.42,143.68h11.44v5.31c0,2.62-.45,4.85-1.36,6.7-.91,1.85-2.22,3.25-3.94,4.21s-3.8,1.44-6.25,1.44-4.59-.45-6.33-1.36-3.07-2.23-3.98-3.96c-.92-1.73-1.37-3.83-1.37-6.3v-9.74c0-2.62.45-4.85,1.36-6.69s2.22-3.24,3.94-4.2c1.72-.96,3.8-1.44,6.25-1.44,2.03,0,3.83.39,5.39,1.16,1.57.77,2.86,1.88,3.88,3.34,1.02,1.45,1.74,3.22,2.15,5.31h-4.27c-.5-1.98-1.38-3.48-2.66-4.51-1.27-1.02-2.77-1.53-4.5-1.53-2.42,0-4.29.75-5.6,2.24-1.31,1.49-1.96,3.6-1.96,6.32v9.74c0,2.51.67,4.45,2.01,5.81,1.34,1.36,3.23,2.04,5.69,2.04s4.23-.71,5.53-2.13c1.29-1.42,1.94-3.55,1.94-6.38v-1.66h-7.36v-3.72Z"/>
      <path class="cls-5" d="M384.9,161v-33.01h3.95v33.01h-3.95ZM387.45,146.61v-3.77h19v3.77h-19ZM404.34,161v-33.01h3.95v33.01h-3.95Z"/>
      <path class="cls-5" d="M412.83,161l12.17-33.01h3.95l12.17,33.01h-4.31l-9.83-28.11-9.83,28.11h-4.31ZM418.44,153.37v-3.72h17.37v3.72h-17.37Z"/>
      <path class="cls-5" d="M446.11,161v-33.03h3.95v33.03h-3.95ZM448.13,147.04v-3.72h11.26c1.6,0,2.89-.53,3.86-1.59.97-1.06,1.46-2.47,1.48-4.22,0-1.76-.48-3.16-1.45-4.22-.97-1.06-2.26-1.59-3.88-1.59h-11.26v-3.72h11.08c1.92,0,3.6.4,5.04,1.19,1.44.79,2.55,1.9,3.35,3.33.79,1.42,1.19,3.1,1.19,5.02s-.4,3.58-1.2,5.01c-.8,1.43-1.92,2.54-3.35,3.34-1.43.79-3.11,1.19-5.03,1.19h-11.08ZM465.48,161l-7.56-14.98,3.81-1.04,8.45,16.03h-4.7Z"/>
      <g>
        <line class="cls-2" x1="216.25" y1="147.07" x2="330.16" y2="147.07"/>
        <g>
          <path class="cls-5" d="M327.75,131.9c3.75,6.33,9.58,11.3,15.79,15.17-6.26,3.81-11.85,8.96-15.79,15.17h-3.74c3.93-6.01,8.66-11.24,14.49-15.17-5.84-3.99-10.75-9.28-14.55-15.17h3.81Z"/>
          <path class="cls-5" d="M318.72,131.9c3.75,6.33,9.58,11.3,15.78,15.17-6.26,3.81-11.85,8.96-15.78,15.17h-3.74c3.93-6.01,8.66-11.24,14.49-15.17-5.83-3.99-10.75-9.28-14.55-15.17h3.81Z"/>
        </g>
      </g>
    </g>
  </g>
</svg>