<?xml version="1.0" encoding="UTF-8"?>
<svg xmlns="http://www.w3.org/2000/svg" version="1.1" viewBox="0 0 232.38 200">
  <defs>
    <style>
      .cls-1 {
        fill: none;
        stroke: #444;
        stroke-miterlimit: 10;
        stroke-width: 2.5px;
      }

      .cls-2 {
        fill: #fff;
      }

      .cls-3 {
        fill: #444;
      }

      .cls-4 {
        fill: #ffb000;
      }

      .cls-5 {
        fill: #565656;
      }
    </style>
  </defs>
  <!-- Generator: Adobe Illustrator 28.6.0, SVG Export Plug-In . SVG Version: 1.2.0 Build 709)  -->
  <g>
    <g id="Layer_1">
      <g>
        <path class="cls-3" d="M135.08,163.61c0,2.34-2.08,4.23-4.64,4.23h-28.51c-2.56,0-4.64-1.9-4.64-4.23H18.99c0,5.72,4.82,10.35,10.76,10.35h172.88c5.94,0,10.76-4.63,10.76-10.35h-78.3Z"/>
        <path class="cls-5" d="M189.83,61.17h-22.01c-1.95,0-3.45,1.71-3.2,3.64h0c.21,1.6,1.58,2.8,3.2,2.8h22.01c1.27,0,2.3,1.03,2.3,2.3v81.16H40.25v-81.16c0-1.27,1.03-2.3,2.3-2.3h22.01c1.62,0,2.99-1.2,3.2-2.8h0c.25-1.93-1.25-3.64-3.2-3.64h-22.01c-4.83,0-8.75,3.92-8.75,8.75v93.69h164.78v-93.69c0-4.83-3.92-8.75-8.75-8.75Z"/>
        <path class="cls-3" d="M33.8,173.96h18.92v.23c0,1.45-1.17,2.62-2.62,2.62h-13.68c-1.45,0-2.62-1.17-2.62-2.62v-.23h0Z"/>
        <path class="cls-3" d="M182.28,173.96h13.68c1.45,0,2.62,1.17,2.62,2.62v.23h-18.92v-.23c0-1.45,1.17-2.62,2.62-2.62Z" transform="translate(378.24 350.76) rotate(180)"/>
        <g>
          <path class="cls-4" d="M155.52,48.42h-78.66c-1.47,0-2.71,1.09-2.9,2.54l-14.38,109.35c-.23,1.75,1.13,3.3,2.9,3.3h107.43c1.76,0,3.13-1.55,2.9-3.3l-14.38-109.35c-.19-1.45-1.43-2.54-2.9-2.54Z"/>
          <circle class="cls-2" cx="94.75" cy="64.39" r="3.22"/>
          <circle class="cls-2" cx="137.62" cy="64.39" r="3.22"/>
          <path class="cls-1" d="M94.75,64.86v-20.23c0-11.84,9.6-21.44,21.44-21.44h0c11.84,0,21.44,9.6,21.44,21.44v19.76"/>
          <circle class="cls-2" cx="116.19" cy="106.01" r="18.21"/>
          <g>
            <polygon class="cls-3" points="123.96 113.34 108.42 113.34 106.24 103.76 126.13 103.76 123.96 113.34"/>
            <path class="cls-1" d="M115.75,96.52h.88c2.81,0,5.1,2.28,5.1,5.1v5.34h-11.08v-5.34c0-2.81,2.28-5.1,5.1-5.1Z"/>
          </g>
        </g>
      </g>
    </g>
  </g>
</svg>